<?xml version="1.0" encoding="UTF-8"?>
<svg xmlns="http://www.w3.org/2000/svg" id="Layer_1" data-name="Layer 1" viewBox="0 0 24 24">
  <path d="m8.391,4.034l1.119.911-.442,1.329c-.138.438.017.917.385,1.193.189.141.414.215.649.215.215,0,.423-.063.603-.183l1.305-.874,1.33.867c.385.25.888.229,1.252-.05.364-.281.512-.763.364-1.207l-.455-1.296,1.114-.908c.347-.292.476-.774.32-1.2s-.564-.712-1.018-.712h-1.398l-.503-1.412c-.156-.423-.564-.707-1.015-.707s-.859.284-1.018.712l-.501,1.406h-1.398c-.453,0-.861.285-1.017.708-.157.424-.03.907.324,1.207Zm.693-.916h1.75c.211,0,.4-.133.471-.332l.62-1.738h.15l.62,1.738c.071.199.26.332.471.332h1.75l.06.142-1.38,1.125c-.163.133-.226.354-.156.553l.571,1.628-.127.088-1.606-1.046c-.168-.11-.384-.107-.551.003l-1.579,1.057c-.018.012-.035.014-.047.014l-.082-.101.549-1.649c.065-.197.002-.415-.159-.545l-1.387-1.128.062-.14Zm14.851,2.604c-.156-.426-.564-.712-1.018-.712h-1.398l-.503-1.412c-.156-.423-.564-.707-1.015-.707s-.859.284-1.018.712l-.501,1.406h-1.398c-.453,0-.862.286-1.016.708-.157.425-.031.907.323,1.207l1.119.911-.442,1.329c-.138.438.017.917.384,1.192.188.142.413.216.65.216.215,0,.423-.063.603-.183l1.305-.874,1.33.867c.384.25.888.229,1.252-.05.364-.281.512-.763.364-1.207l-.455-1.296,1.114-.908c.347-.292.476-.774.32-1.2Zm-2.338,1.554c-.163.133-.226.354-.156.553l.571,1.628-.127.088-1.606-1.046c-.168-.109-.385-.107-.551.003l-1.579,1.057c-.018.012-.035.014-.047.014l-.082-.101.549-1.649c.065-.197.002-.415-.159-.545l-1.387-1.128.062-.14h1.75c.211,0,.4-.133.471-.332l.62-1.738h.15l.62,1.738c.071.199.26.332.471.332h1.75l.06.142-1.38,1.125Zm-16.258,3.107c.385.25.888.229,1.252-.05.364-.281.512-.763.364-1.207l-.455-1.296,1.114-.908c.347-.292.476-.774.32-1.2-.156-.426-.564-.712-1.018-.712h-1.398l-.503-1.412c-.156-.423-.564-.707-1.015-.707s-.859.284-1.018.712l-.501,1.406h-1.398c-.453,0-.862.286-1.016.708-.157.425-.031.907.323,1.207l1.119.911-.442,1.329c-.138.438.017.917.384,1.192.188.142.413.216.65.216.215,0,.423-.063.603-.183l1.305-.874,1.33.867Zm-1.612-1.881l-1.579,1.057c-.018.012-.035.014-.047.014l-.082-.101.549-1.649c.065-.197.002-.415-.159-.545l-1.387-1.128.062-.14h1.75c.211,0,.4-.133.471-.332l.62-1.738h.15l.62,1.738c.071.199.26.332.471.332h1.75l.06.142-1.38,1.125c-.163.133-.226.354-.156.553l.571,1.628-.127.088-1.606-1.046c-.167-.109-.384-.107-.551.003Zm13.273,5.498h-4.183l.587-3.33q.023-.508,0-.533c-.121-.444-.402-.794-.791-.985-.394-.192-.848-.2-1.281-.02-.254.105-.502.367-.679.712l-2.196,4.155h-1.456c-1.654,0-3,1.346-3,3v4c0,1.654,1.346,3,3,3h8.379c1.9,0,3.55-1.353,3.923-3.216l.639-3.196c.177-.885-.05-1.792-.622-2.49-.572-.698-1.417-1.098-2.32-1.098Zm-11.999,7v-4c0-1.103.897-2,2-2h1v8h-1c-1.103,0-2-.897-2-2Zm13.96-3.608l-.639,3.196c-.28,1.397-1.517,2.412-2.942,2.412h-6.379v-8.161c.141-.091.259-.218.34-.372l2.2-4.161c.094-.184.182-.251.177-.251.163-.068.324-.069.455-.005.1.049.179.135.247.291l-.586,3.484c-.052.292.027.589.218.818.191.227.47.357.766.357h4.183c.602,0,1.165.267,1.546.732.382.465.533,1.07.415,1.66Z"/>
</svg>
